<svg xmlns="http://www.w3.org/2000/svg" width="900" height="260" viewBox="0 0 900 260">
  <defs>
    <linearGradient id="bg" x1="0" y1="0" x2="1" y2="1">
      <stop offset="0%" stop-color="#0b0f19"/>
      <stop offset="100%" stop-color="#151a28"/>
    </linearGradient>
  </defs>
  <rect x="0" y="0" width="900" height="260" rx="18" fill="url(#bg)" stroke="#242b3d" />
  <text x="28" y="36" fill="#9fb3ff" font-size="18" font-weight="600" font-family="Segoe UI, Roboto, sans-serif">Profile Snapshot</text>

  <text x="28" y="72" fill="#9fb3ff" font-size="12" font-family="Segoe UI, Roboto, sans-serif">Public Repos</text>
  <text x="170" y="72" fill="#e5edff" font-size="14" font-weight="600" font-family="Segoe UI, Roboto, sans-serif">39</text>

  <text x="28" y="98" fill="#9fb3ff" font-size="12" font-family="Segoe UI, Roboto, sans-serif">Active (30d)</text>
  <text x="170" y="98" fill="#e5edff" font-size="14" font-weight="600" font-family="Segoe UI, Roboto, sans-serif">10</text>

  <text x="28" y="124" fill="#9fb3ff" font-size="12" font-family="Segoe UI, Roboto, sans-serif">Stars</text>
  <text x="170" y="124" fill="#e5edff" font-size="14" font-weight="600" font-family="Segoe UI, Roboto, sans-serif">12</text>

  <text x="28" y="150" fill="#9fb3ff" font-size="12" font-family="Segoe UI, Roboto, sans-serif">Forks</text>
  <text x="170" y="150" fill="#e5edff" font-size="14" font-weight="600" font-family="Segoe UI, Roboto, sans-serif">3</text>

  <text x="28" y="176" fill="#9fb3ff" font-size="12" font-family="Segoe UI, Roboto, sans-serif">Latest Push</text>
  <text x="170" y="176" fill="#e5edff" font-size="14" font-weight="600" font-family="Segoe UI, Roboto, sans-serif">coff33ninja</text>

  <text x="470" y="66" fill="#9fb3ff" font-size="12" font-family="Segoe UI, Roboto, sans-serif">Top Languages</text>
  <circle cx="470" cy="84" r="4" fill="#3776AB" />
<text x="480" y="84" fill="#cbd5f5" font-size="12" font-family="Segoe UI, Roboto, sans-serif">Python</text>
<text x="670" y="84" fill="#7fa0ff" font-size="12" font-family="Segoe UI, Roboto, sans-serif">54.1%</text>
<rect x="470" y="92" width="260" height="8" rx="4" fill="#1f2535" />
<rect x="470" y="92" width="141" height="8" rx="4" fill="#3776AB" />
<circle cx="470" cy="108" r="4" fill="#3178C6" />
<text x="480" y="108" fill="#cbd5f5" font-size="12" font-family="Segoe UI, Roboto, sans-serif">TypeScript</text>
<text x="670" y="108" fill="#7fa0ff" font-size="12" font-family="Segoe UI, Roboto, sans-serif">13.5%</text>
<rect x="470" y="116" width="260" height="8" rx="4" fill="#1f2535" />
<rect x="470" y="116" width="35" height="8" rx="4" fill="#3178C6" />
<circle cx="470" cy="132" r="4" fill="#5391FE" />
<text x="480" y="132" fill="#cbd5f5" font-size="12" font-family="Segoe UI, Roboto, sans-serif">PowerShell</text>
<text x="670" y="132" fill="#7fa0ff" font-size="12" font-family="Segoe UI, Roboto, sans-serif">10.8%</text>
<rect x="470" y="140" width="260" height="8" rx="4" fill="#1f2535" />
<rect x="470" y="140" width="28" height="8" rx="4" fill="#5391FE" />
<circle cx="470" cy="156" r="4" fill="#C1F12E" />
<text x="480" y="156" fill="#cbd5f5" font-size="12" font-family="Segoe UI, Roboto, sans-serif">Batchfile</text>
<text x="670" y="156" fill="#7fa0ff" font-size="12" font-family="Segoe UI, Roboto, sans-serif">8.1%</text>
<rect x="470" y="164" width="260" height="8" rx="4" fill="#1f2535" />
<rect x="470" y="164" width="21" height="8" rx="4" fill="#C1F12E" />
<circle cx="470" cy="180" r="4" fill="#F7DF1E" />
<text x="480" y="180" fill="#cbd5f5" font-size="12" font-family="Segoe UI, Roboto, sans-serif">JavaScript</text>
<text x="670" y="180" fill="#7fa0ff" font-size="12" font-family="Segoe UI, Roboto, sans-serif">8.1%</text>
<rect x="470" y="188" width="260" height="8" rx="4" fill="#1f2535" />
<rect x="470" y="188" width="21" height="8" rx="4" fill="#F7DF1E" />
<circle cx="470" cy="204" r="4" fill="#0175C2" />
<text x="480" y="204" fill="#cbd5f5" font-size="12" font-family="Segoe UI, Roboto, sans-serif">Dart</text>
<text x="670" y="204" fill="#7fa0ff" font-size="12" font-family="Segoe UI, Roboto, sans-serif">5.4%</text>
<rect x="470" y="212" width="260" height="8" rx="4" fill="#1f2535" />
<rect x="470" y="212" width="14" height="8" rx="4" fill="#0175C2" />


  <circle cx="820" cy="110" r="38" fill="none" stroke="#1f2535" stroke-width="8" />
  <circle cx="820" cy="110" r="38" fill="none" stroke="#6ea8ff" stroke-width="8" stroke-linecap="round"
          stroke-dasharray="62.08 238.76" transform="rotate(-90 820 110)" />
  <text x="820" y="116" text-anchor="middle" fill="#e5edff" font-size="20" font-weight="700" font-family="Segoe UI, Roboto, sans-serif">E</text>
  <text x="820" y="136" text-anchor="middle" fill="#9fb3ff" font-size="11" font-family="Segoe UI, Roboto, sans-serif">26% active</text>
</svg>
